<?xml version="1.0" encoding="UTF-8"?>
<svg version="1.1" xmlns="http://www.w3.org/2000/svg" width="500" height="500">
<path d="M0 0 C165 0 330 0 500 0 C500 165 500 330 500 500 C335 500 170 500 0 500 C0 335 0 170 0 0 Z " fill="#FEFEFE" transform="translate(0,0)"/>
<path d="M0 0 C4.81257177 2.46459653 9.52972641 3.36444097 14.875 2.1875 C17.51295021 0.17059188 17.8386353 -0.64390002 18.5625 -4 C18.665625 -4.928125 18.76875 -5.85625 18.875 -6.8125 C20.195 -6.8125 21.515 -6.8125 22.875 -6.8125 C22.875 13.6475 22.875 34.1075 22.875 55.1875 C21.555 55.1875 20.235 55.1875 18.875 55.1875 C18.78863281 54.03894531 18.70226562 52.89039063 18.61328125 51.70703125 C17.07157387 33.75923021 11.68156778 18.13031366 -2.4453125 6.12890625 C-13.92595753 -2.18870392 -26.38270117 -3.68850311 -40.125 -2.8125 C-46.74246814 -1.72655651 -51.48783 0.32951238 -56.125 5.1875 C-61.65113052 13.09466425 -62.24630056 21.37739937 -60.69921875 30.7734375 C-53.91308503 56.50245982 -28.32294867 69.96537276 -7.62451172 83.45556641 C9.65245255 94.79838264 28.17382104 108.87398191 32.875 130.1875 C34.24699373 144.24966151 33.24229683 158.41180979 24.62109375 170.12890625 C18.15576718 177.75133824 11.36687704 182.08565104 1.875 185.1875 C0.70650513 185.57917358 0.70650513 185.57917358 -0.4855957 185.97875977 C-7.91899192 188.26757194 -14.82015726 188.60929338 -22.5625 188.5 C-23.70009766 188.50322266 -24.83769531 188.50644531 -26.00976562 188.50976562 C-39.36167969 188.42598294 -49.87406366 185.89680442 -61.92382812 180.2890625 C-69.27004993 177.05903207 -76.51884449 175.43716091 -84.25 178.375 C-86.53412508 180.58298758 -86.87164237 182.06275593 -87.125 185.1875 C-88.445 185.1875 -89.765 185.1875 -91.125 185.1875 C-91.125 159.1175 -91.125 133.0475 -91.125 106.1875 C-89.805 106.1875 -88.485 106.1875 -87.125 106.1875 C-87.09921875 107.36183594 -87.0734375 108.53617187 -87.046875 109.74609375 C-86.34562155 132.16040551 -81.68829741 153.3196328 -64.9375 169.375 C-52.75983013 179.7332557 -38.66586717 182.27962869 -23.09863281 181.3828125 C-14.59094764 180.54088423 -6.04866986 177.51728434 -0.125 171.1875 C3.54141319 166.15192499 5.54466113 161.46393853 5.875 155.1875 C5.936875 154.42695313 5.99875 153.66640625 6.0625 152.8828125 C6.62955907 141.50618989 1.09142841 132.21028471 -6.171875 123.82421875 C-16.71659019 112.73103683 -29.73108507 104.38921528 -42.32666016 95.83496094 C-62.7620907 81.93836679 -81.0656165 68.33595875 -90.5 44.75 C-92.40459683 33.89379808 -91.47629751 23.51072117 -85.76953125 13.90625 C-84.3192296 11.88438175 -82.78928686 10.03626203 -81.125 8.1875 C-80.60035156 7.58292969 -80.07570312 6.97835937 -79.53515625 6.35546875 C-58.96031204 -15.865363 -24.37068978 -13.46700597 0 0 Z " fill="#3F3D3C" transform="translate(257.125,132.8125)"/>
<path d="M0 0 C7.98286704 9.83474836 14.95236074 20.38548111 21.9375 30.9375 C26.55716353 37.89645261 31.17751314 44.84848759 36.0625 51.625 C36.46654053 52.19726318 36.87058105 52.76952637 37.28686523 53.35913086 C41.92326416 59.68322864 48.38017605 66.05720059 56.375 67.3984375 C58.58325213 67.65376665 60.78190303 67.85705597 63 68 C63 69.32 63 70.64 63 72 C58.35935528 72.09997246 53.71935728 72.17197966 49.07788086 72.21972656 C47.50387635 72.23966084 45.92994411 72.26681871 44.35620117 72.30175781 C30.44818717 72.60247163 19.48415144 71.02270112 9 61 C2.22760497 54.07461412 2.22760497 54.07461412 0 50 C0.19140625 46.5234375 0.19140625 46.5234375 1 43 C3.27503539 30.54542669 5.2270707 17.02934529 0.65625 4.8828125 C0 3 0 3 0 0 Z " fill="#575757" transform="translate(300,250)"/>
<path d="M0 0 C6.98161623 4.44284669 13.35101329 8.63251981 19.625 13.875 C20.33011719 14.45507812 21.03523438 15.03515625 21.76171875 15.6328125 C26.72982486 19.72982486 26.72982486 19.72982486 28 21 C28.10099488 23.72724279 28.13970529 26.42862523 28.1328125 29.15625 C28.13424759 30.38245056 28.13424759 30.38245056 28.13571167 31.63342285 C28.13639345 33.36515378 28.13453929 35.09688724 28.13037109 36.82861328 C28.12502279 39.48866482 28.13031612 42.1485475 28.13671875 44.80859375 C28.13605797 46.48697954 28.1347768 48.16536523 28.1328125 49.84375 C28.13483673 50.64478149 28.13686096 51.44581299 28.13894653 52.27111816 C28.11495079 57.88504921 28.11495079 57.88504921 27 59 C23.61169191 59.25292226 20.20912276 59.18523407 16.8125 59.1875 C15.86568359 59.19974609 14.91886719 59.21199219 13.94335938 59.22460938 C13.01974609 59.22654297 12.09613281 59.22847656 11.14453125 59.23046875 C10.30253174 59.23457764 9.46053223 59.23868652 8.59301758 59.24291992 C6 59 6 59 0 57 C0 38.19 0 19.38 0 0 Z " fill="#555555" transform="translate(211,242)"/>
<path d="M0 0 C1.25941406 0.00386719 2.51882812 0.00773438 3.81640625 0.01171875 C7.4375 0.3125 7.4375 0.3125 13.4375 2.3125 C13.4375 18.1525 13.4375 33.9925 13.4375 50.3125 C5.83632586 45.96897192 -0.21262726 41.25821681 -6.5625 35.3125 C-7.85800781 34.11173828 -7.85800781 34.11173828 -9.1796875 32.88671875 C-15.98992632 25.28881886 -15.30212381 17.18117815 -14.84375 7.51953125 C-14.75554895 6.11682756 -14.66400923 4.71430346 -14.5625 3.3125 C-9.4655453 0.81992473 -5.77860748 -0.0770481 0 0 Z " fill="#555555" transform="translate(225.5625,142.6875)"/>
<path d="M0 0 C16.5 0 33 0 50 0 C50 1.32 50 2.64 50 4 C49.17757812 4.02578125 48.35515625 4.0515625 47.5078125 4.078125 C33.658821 4.78176891 25.58731941 8.80372003 16.19921875 18.9453125 C15.05772596 20.24162845 13.92890769 21.5492062 12.8125 22.8671875 C10.7546644 25.28869233 8.6325641 27.64409303 6.5 30 C3.07715732 33.78560549 -0.28205142 37.61744575 -3.58984375 41.50390625 C-5 43 -5 43 -7 44 C-6.49773258 39.56592044 -5.04876371 37.51476049 -2 34.3125 C-1.18917969 33.44496094 -0.37835938 32.57742187 0.45703125 31.68359375 C1.29621094 30.79800781 2.13539063 29.91242188 3 29 C13.29733764 19.30502638 13.29733764 19.30502638 18 7 C14.01606389 5.15433468 10.55623317 4.63977171 6.1875 4.375 C5.02605469 4.30023438 3.86460937 4.22546875 2.66796875 4.1484375 C1.78753906 4.09945312 0.90710938 4.05046875 0 4 C0 2.68 0 1.36 0 0 Z " fill="#606060" transform="translate(300,134)"/>
<path d="M0 0 C3 2.0625 3 2.0625 5 5 C5.06944397 8.95830645 4.5699479 11.14507816 2.375 14.4375 C-0.9617771 16.63274809 -3.08548544 16.55921637 -7 16 C-10.26473709 13.85214665 -10.9058033 12.30475404 -12.0625 8.5625 C-12 5 -12 5 -10 2.0625 C-6.24750505 -0.51734028 -4.46801531 -0.79785988 0 0 Z " fill="#A8A8A8" transform="translate(261,341)"/>
<path d="M0 0 C7 0 7 0 9 1.1875 C10 3 10 3 9.8125 5.4375 C9.06651171 7.79023229 8.19665408 9.84602265 7 12 C7.99 13.32 8.98 14.64 10 16 C9.01 16 8.02 16 7 16 C4 12.66666667 4 12.66666667 4 10 C3.01 10 2.02 10 1 10 C1 11.98 1 13.96 1 16 C0.67 16 0.34 16 0 16 C0 10.72 0 5.44 0 0 Z " fill="#242424" transform="translate(276,341)"/>
<path d="M0 0 C3.01729419 1.50864709 3.36592542 3.80462514 4.625 6.875 C5.07101562 7.94492187 5.51703125 9.01484375 5.9765625 10.1171875 C7 13 7 13 7 16 C6.34 16 5.68 16 5 16 C4.67 15.01 4.34 14.02 4 13 C1.69 13 -0.62 13 -3 13 C-3.33 13.99 -3.66 14.98 -4 16 C-4.66 16 -5.32 16 -6 16 C-5.37183502 12.05050296 -4.1354471 8.80107972 -2.4375 5.1875 C-1.98246094 4.21167969 -1.52742188 3.23585938 -1.05859375 2.23046875 C-0.70925781 1.49441406 -0.35992187 0.75835937 0 0 Z " fill="#3C3C3C" transform="translate(300,341)"/>
<path d="M0 0 C0.66 0 1.32 0 2 0 C2.33 1.65 2.66 3.3 3 5 C4.32 3.35 5.64 1.7 7 0 C7.66 0.33 8.32 0.66 9 1 C8.29875 1.886875 7.5975 2.77375 6.875 3.6875 C4.63152584 6.77424074 4.63152584 6.77424074 5.625 9.625 C6.07875 10.40875 6.5325 11.1925 7 12 C7.556875 13.1446875 7.556875 13.1446875 8.125 14.3125 C8.41375 14.869375 8.7025 15.42625 9 16 C5.83884224 14.63016497 5.0072908 14.0109362 3 11 C2.67 12.65 2.34 14.3 2 16 C1.34 16 0.68 16 0 16 C0 10.72 0 5.44 0 0 Z " fill="#282828" transform="translate(232,341)"/>
<path d="M0 0 C0.66 0 1.32 0 2 0 C2.33 1.65 2.66 3.3 3 5 C4.32 3.35 5.64 1.7 7 0 C7.66 0.33 8.32 0.66 9 1 C8.29875 1.886875 7.5975 2.77375 6.875 3.6875 C4.63152584 6.77424074 4.63152584 6.77424074 5.625 9.625 C6.07875 10.40875 6.5325 11.1925 7 12 C7.556875 13.1446875 7.556875 13.1446875 8.125 14.3125 C8.41375 14.869375 8.7025 15.42625 9 16 C5.83884224 14.63016497 5.0072908 14.0109362 3 11 C2.67 12.65 2.34 14.3 2 16 C1.34 16 0.68 16 0 16 C0 10.72 0 5.44 0 0 Z " fill="#282828" transform="translate(214,341)"/>
<path d="M0 0 C0.99 0.103125 1.98 0.20625 3 0.3125 C3.66 1.3025 4.32 2.2925 5 3.3125 C2.69 2.9825 0.38 2.6525 -2 2.3125 C-2 3.6325 -2 4.9525 -2 6.3125 C-0.865625 6.704375 0.26875 7.09625 1.4375 7.5 C5 9.3125 5 9.3125 6.0625 11.875 C6 14.3125 6 14.3125 4 16.3125 C1.31160615 16.58241906 -1.29141936 16.39987357 -4 16.3125 C-4.66 14.9925 -5.32 13.6725 -6 12.3125 C-1.05 13.3025 -1.05 13.3025 4 14.3125 C4 12.9925 4 11.6725 4 10.3125 C1.03 9.3225 -1.94 8.3325 -5 7.3125 C-5.125 4.9375 -5.125 4.9375 -5 2.3125 C-3 0.3125 -3 0.3125 0 0 Z " fill="#2D2D2D" transform="translate(199,340.6875)"/>
<path d="M0 0 C3.01729419 1.50864709 3.36592542 3.80462514 4.625 6.875 C5.07101562 7.94492187 5.51703125 9.01484375 5.9765625 10.1171875 C7 13 7 13 7 16 C6.34 16 5.68 16 5 16 C4.67 14.35 4.34 12.7 4 11 C2.02 11 0.04 11 -2 11 C-2 10.67 -2 10.34 -2 10 C-0.35 10 1.3 10 3 10 C2.34 8.35 1.68 6.7 1 5 C0.01 5.66 -0.98 6.32 -2 7 C-1.125 1.125 -1.125 1.125 0 0 Z " fill="#2B2B2B" transform="translate(300,341)"/>
<path d="M0 0 C1.98 0 3.96 0 6 0 C6.38218767 1.65614657 6.71395102 3.32457024 7 5 C6 6 6 6 2.9375 6.0625 C1.4834375 6.0315625 1.4834375 6.0315625 0 6 C0 4.02 0 2.04 0 0 Z " fill="#F0F0F0" transform="translate(277,343)"/>
<path d="M0 0 C1.32 0.33 2.64 0.66 4 1 C1.69 3.64 -0.62 6.28 -3 9 C-4.32 8.67 -5.64 8.34 -7 8 C-6.02133662 6.85373678 -5.04205413 5.70800212 -4.0625 4.5625 C-3.51722656 3.92441406 -2.97195313 3.28632813 -2.41015625 2.62890625 C-1.63204305 1.73008851 -0.84063472 0.84063472 0 0 Z " fill="#696969" transform="translate(269,201)"/>
<path d="M0 0 C0 3.73928499 -0.91959602 4.40902253 -3.375 7.125 C-4.31472656 8.18074219 -4.31472656 8.18074219 -5.2734375 9.2578125 C-7 11 -7 11 -9 12 C-9 8 -9 8 -7.28515625 6.11328125 C-6.55167969 5.51902344 -5.81820313 4.92476562 -5.0625 4.3125 C-4.33160156 3.71050781 -3.60070312 3.10851562 -2.84765625 2.48828125 C-2.23792969 1.99714844 -1.62820313 1.50601563 -1 1 C-0.67 0.67 -0.34 0.34 0 0 Z " fill="#666666" transform="translate(302,166)"/>
<path d="M0 0 C2.35953094 2.35953094 2.49141413 3.77895617 3 7 C1.35 7 -0.3 7 -2 7 C-1.34 4.69 -0.68 2.38 0 0 Z " fill="#E8E8E8" transform="translate(300,344)"/>
<path d="M0 0 C0.66 0.33 1.32 0.66 2 1 C2.73075648 3.3140622 3.40138258 5.64828869 4 8 C3.34 8 2.68 8 2 8 C1.34 7.01 0.68 6.02 0 5 C-0.66 5.66 -1.32 6.32 -2 7 C-1.125 1.125 -1.125 1.125 0 0 Z " fill="#222222" transform="translate(300,341)"/>
</svg>
